<svg width="64" height="64" viewBox="0 0 64 64" fill="none" xmlns="http://www.w3.org/2000/svg">
  <!-- 简约圆形背景 -->
  <circle cx="32" cy="32" r="28" fill="#3b82f6"/>
  
  <!-- 字母B - 简约几何设计 -->
  <path d="M20 18 L20 46 L34 46 C38.4 46 42 42.4 42 38 C42 35.2 40.4 32.8 38 32 C40.4 31.2 42 28.8 42 26 C42 21.6 38.4 18 34 18 L20 18 Z M26 24 L32 24 C34.2 24 36 25.8 36 28 C36 30.2 34.2 32 32 32 L26 32 Z M26 36 L34 36 C36.2 36 38 37.8 38 40 C38 42.2 36.2 44 34 44 L26 44 Z" 
        fill="white"/>
  
  <!-- 简约图片图标 -->
  <rect x="46" y="20" width="10" height="8" rx="2" fill="white" opacity="0.9"/>
  <circle cx="48.5" cy="23" r="1.5" fill="#3b82f6"/>
  <path d="M47 26 L49 24 L51 26 L54 23" stroke="#3b82f6" stroke-width="1" fill="none" stroke-linecap="round" stroke-linejoin="round"/>
</svg> 